<svg
    width="154"
    height="32"
    viewBox="0 0 154 32"
    fill="none"
    xmlns="http://www.w3.org/2000/svg"
>
  <!-- Book icon background -->
  <rect width="32" height="32" rx="8" fill="#00b8a9" />

  <!-- Book cover - left page -->
  <path
        d="M8 6C7.44772 6 7 6.44772 7 7V25C7 25.5523 7.44772 26 8 26H16V6H8Z"
        fill="#ffffff"
        opacity="0.9"
    />

  <!-- Book cover - right page -->
  <path
        d="M16 6V26H24C24.5523 26 25 25.5523 25 25V7C25 6.44772 24.5523 6 24 6H16Z"
        fill="#ffffff"
        opacity="0.7"
    />

  <!-- Spine line -->
  <line x1="16" y1="6" x2="16" y2="26" stroke="#00b8a9" stroke-width="0.5" />

  <!-- Book lines (pages detail) - left page -->
  <line
        x1="10"
        y1="12"
        x2="14"
        y2="12"
        stroke="#00b8a9"
        stroke-width="0.75"
        opacity="0.6"
    />
  <line
        x1="10"
        y1="15"
        x2="14"
        y2="15"
        stroke="#00b8a9"
        stroke-width="0.75"
        opacity="0.6"
    />
  <line
        x1="10"
        y1="18"
        x2="14"
        y2="18"
        stroke="#00b8a9"
        stroke-width="0.75"
        opacity="0.6"
    />
  <line
        x1="10"
        y1="21"
        x2="14"
        y2="21"
        stroke="#00b8a9"
        stroke-width="0.75"
        opacity="0.6"
    />

  <!-- Book lines (pages detail) - right page -->
  <line
        x1="18"
        y1="12"
        x2="22"
        y2="12"
        stroke="#00b8a9"
        stroke-width="0.75"
        opacity="0.6"
    />
  <line
        x1="18"
        y1="15"
        x2="22"
        y2="15"
        stroke="#00b8a9"
        stroke-width="0.75"
        opacity="0.6"
    />
  <line
        x1="18"
        y1="18"
        x2="22"
        y2="18"
        stroke="#00b8a9"
        stroke-width="0.75"
        opacity="0.6"
    />
  <line
        x1="18"
        y1="21"
        x2="22"
        y2="21"
        stroke="#00b8a9"
        stroke-width="0.75"
        opacity="0.6"
    />

  <!-- Text: PatronesDSG -->
  <text
        x="44"
        y="22"
        font-family="Outfit, sans-serif"
        font-size="18"
        font-weight="600"
        fill="#101828"
    >
    DSG-UTP
  </text>
</svg>
